<?xml version="1.0" standalone="no"?>
<svg version="1.0" xmlns="http://www.w3.org/2000/svg" width="700pt" height="700pt" viewBox="0 0 700 700" preserveAspectRatio="xMidYMid meet">
    <metadata>
        Created by potrace 1.14, written by Peter Selinger 2001-2017
    </metadata>
    <g transform="translate(0.000000,700.000000) scale(0.100000,-0.100000)" fill="#000000" stroke="none">
        <path d="M3235 6309 c-1145 -117 -2098 -902 -2428 -1999 -38 -125 -77 -310 -98 -460 -18 -127 -18 -563 0 -690 82 -590 321 -1115 698 -1530 37 -41 410 -416 829 -833 l761 -757 144 -16 c277 -29 677 -16 952 31 958 165 1808 726 2340 1546 300 463 479 967 542 1529 20 181 20 546 -1 742 l-16 153 -771 775 c-763 766 -880 879 -1027 984 -378 273 -784 437 -1260 511 -125 19 -531 28 -665 14z m650 -478 c507 -90 934 -310 1285 -661 189 -188 328 -384 450 -633 273 -558 315 -1183 119 -1782 -80 -243 -254 -554 -422 -754 -336 -401 -797 -684 -1297 -795 -793 -176 -1607 61 -2180 634 -448 447 -690 1032 -690 1665 0 633 242 1218 690 1665 370 371 833 599 1365 675 152 21 523 14 680 -14z"/>
        <path d="M3360 5261 l0 -159 -67 -16 c-95 -24 -236 -94 -322 -162 -176 -137 -298 -361 -319 -584 -25 -261 47 -501 198 -663 111 -119 230 -190 423 -253 l87 -28 0 -594 0 -593 -22 6 c-116 36 -254 145 -318 254 -39 65 -80 195 -80 253 l0 28 -148 0 -148 0 8 -82 c21 -220 141 -441 315 -579 87 -69 229 -141 326 -165 l67 -16 0 -159 0 -159 145 0 145 0 0 159 0 159 71 17 c145 36 318 140 420 254 162 181 238 412 218 667 -15 202 -80 359 -200 488 -113 121 -227 189 -421 252 l-88 28 0 592 0 593 28 -8 c106 -31 236 -130 299 -229 45 -70 80 -165 89 -240 l7 -62 147 0 147 0 -5 58 c-17 237 -146 475 -335 618 -80 61 -217 127 -306 149 l-71 17 0 159 0 159 -145 0 -145 0 0 -159z m0 -1007 l0 -546 -27 6 c-16 4 -65 25 -111 47 -148 72 -233 181 -266 342 -30 146 -11 303 51 420 35 65 153 186 213 218 50 26 121 58 133 58 4 1 7 -245 7 -545z m428 -1005 c178 -87 267 -228 279 -444 6 -118 -10 -203 -59 -304 -58 -119 -208 -246 -330 -282 l-28 -8 0 546 0 545 28 -6 c15 -4 64 -25 110 -47z"/>
    </g>
</svg>
